<svg xmlns="http://www.w3.org/2000/svg" xmlns:xlink="http://www.w3.org/1999/xlink" width="138.306" height="41.511" viewBox="0 0 138.306 41.511">
  <defs>
    <clipPath id="clip-path">
      <rect id="Rectángulo_349" data-name="Rectángulo 349" width="138.306" height="41.511" fill="#fff"/>
    </clipPath>
  </defs>
  <g id="Grupo_1973" data-name="Grupo 1973" transform="translate(-1274 -298)">
    <g id="Grupo_1979" data-name="Grupo 1979" transform="translate(1274 298)">
      <path id="Trazado_4215" data-name="Trazado 4215" d="M99.385,31.607H95.762V27.294H92.225v4.313H88.6V19.529h3.623v4.814h3.537V19.529h3.623Z" transform="translate(-43.282 -9.54)" fill="#fff"/>
      <path id="Trazado_4216" data-name="Trazado 4216" d="M124.324,31.608h-3.847l-.9-2.347h-3.33l-.863,2.347h-3.744l4.676-12.078h3.209Zm-7.505-5.176h2.156l-1.035-2.8Z" transform="translate(-54.537 -9.54)" fill="#fff"/>
      <g id="Grupo_1974" data-name="Grupo 1974" transform="translate(0 0)">
        <g id="Grupo_1973-2" data-name="Grupo 1973" clip-path="url(#clip-path)">
          <path id="Trazado_4217" data-name="Trazado 4217" d="M144.157,19.53a4.331,4.331,0,0,1,3.123,1.139,3.943,3.943,0,0,1,1.191,2.985,3.721,3.721,0,0,1-1.191,2.873,4.43,4.43,0,0,1-3.123,1.1h-2.243v3.986h-3.623V19.53Zm-2.243,3.106v2.1h1.863a1.065,1.065,0,0,0,.776-.285,1.151,1.151,0,0,0,0-1.536,1.069,1.069,0,0,0-.776-.284Z" transform="translate(-67.556 -9.54)" fill="#fff"/>
          <path id="Trazado_4218" data-name="Trazado 4218" d="M166.692,19.53a4.331,4.331,0,0,1,3.123,1.139,3.944,3.944,0,0,1,1.19,2.985,3.723,3.723,0,0,1-1.19,2.873,4.43,4.43,0,0,1-3.123,1.1h-2.243v3.986h-3.623V19.53Zm-2.243,3.106v2.1h1.863a1.065,1.065,0,0,0,.776-.285,1.151,1.151,0,0,0,0-1.536,1.069,1.069,0,0,0-.776-.284Z" transform="translate(-78.564 -9.54)" fill="#fff"/>
          <path id="Trazado_4219" data-name="Trazado 4219" d="M193.5,19.874l-4.71,6.074v5.659H185.17V26.017l-4.71-6.142v-.345h3.986l2.536,3.658,2.553-3.658H193.5Z" transform="translate(-88.155 -9.54)" fill="#fff"/>
          <path id="Trazado_4220" data-name="Trazado 4220" d="M213.852,19.53a4.331,4.331,0,0,1,3.123,1.139,3.944,3.944,0,0,1,1.19,2.985,3.723,3.723,0,0,1-1.19,2.873,4.43,4.43,0,0,1-3.123,1.1h-2.243v3.986h-3.623V19.53Zm-2.243,3.106v2.1h1.863a1.065,1.065,0,0,0,.776-.285,1.151,1.151,0,0,0,0-1.536,1.069,1.069,0,0,0-.776-.284Z" transform="translate(-101.602 -9.54)" fill="#fff"/>
          <path id="Trazado_4221" data-name="Trazado 4221" d="M239.855,22.635h-5.711v1.57h5.3v2.761h-5.3V28.5h5.711v3.106H230.52V19.53h9.335Z" transform="translate(-112.61 -9.54)" fill="#fff"/>
          <path id="Trazado_4222" data-name="Trazado 4222" d="M260.8,22.635h-3.279v8.972H253.97V22.635H250.76V19.53H260.8Z" transform="translate(-122.497 -9.54)" fill="#fff"/>
        </g>
      </g>
      <g id="Grupo_1976" data-name="Grupo 1976" transform="translate(0 0)">
        <g id="Grupo_1975" data-name="Grupo 1975" clip-path="url(#clip-path)">
          <path id="Trazado_4223" data-name="Trazado 4223" d="M109.829,52.626a1.008,1.008,0,0,1,.662.41c0,.052.015.079.045.079l-.045.2V53.7l-.073.112a.08.08,0,0,1,.073.09v.786a.08.08,0,0,0,.09.073,7.291,7.291,0,0,0,1.078-.2h.039l.084.039c0-.053.1-.092.292-.118.008.053.032.079.073.079q0-.13.792-.169v.039a.7.7,0,0,1,.326-.079,2.6,2.6,0,0,0,.258.039.276.276,0,0,1,.124-.039,1.079,1.079,0,0,0,.494.41c0,.034-.013.051-.039.051l.039.292v.118H113.9a.351.351,0,0,1-.169-.039,2.538,2.538,0,0,0-.617.376l-.2-.051c-.27.034-.436.051-.5.051a.045.045,0,0,0-.051-.051l-.039.084-.208-.034a3.035,3.035,0,0,1-1,.208v-.039c-.056,0-.163.08-.32.241q-.252,0-.253.129v.618h-.084a1.117,1.117,0,0,0,.129.461.4.4,0,0,0-.09.2.221.221,0,0,0,.045.118,3.419,3.419,0,0,1-.084.55.307.307,0,0,1,.039.157h-.039l.039.084V59a.371.371,0,0,1-.039.168.309.309,0,0,1,.039.158v.292l-.112.168c.045,0,.082.043.112.129v.118c0,.03-.013.045-.039.045l.039.079a9.9,9.9,0,0,1-.073,1.078.47.47,0,0,1,.034.163.274.274,0,0,1-.163.084v.051c.086,0,.129.025.129.073v.039l-.09.129v.214a.181.181,0,0,1,.208.2q.382,0,1.079-1.2.1-.264.213-.292c.049,0,.088.1.118.292a.317.317,0,0,0-.045.168l.045.214a.575.575,0,0,1-.247.483l-.084-.039h-.045v.039h.09V61.9l-.045.084c.056,0,.084.009.084.028a.518.518,0,0,1-.241.342q0,.163-.3.281a.4.4,0,0,0-.163-.028q0,.207-.416.32h-.129c0,.108-.148.163-.444.163a.678.678,0,0,1-.6-.41l.09-.123h-.045l-.073.051-.3-.759c.03,0,.045-.013.045-.039q-.1,0-.163-.37a.411.411,0,0,0,.034-.163c-.049,0-.073-.028-.073-.084v-.084a.035.035,0,0,1,.039-.039.531.531,0,0,1-.09-.247c0-.086.041-.129.123-.129v-.079l-.123.079V60.4a.253.253,0,0,1,.051-.157.273.273,0,0,1-.051-.169l.09-.045-.039-.084v-.034a.035.035,0,0,1,.039-.039c-.018-.113-.048-.169-.09-.169a3.712,3.712,0,0,1,.123-.792,2.083,2.083,0,0,1-.073-.376h-.051q-.113.377-.2.376l.039.084a1.3,1.3,0,0,1-.41.578h-.135l-.034.084-.084-.045a.406.406,0,0,1-.2.09c0-.06-.084-.116-.253-.168V59.5l.253-.337h.039l-.039-.084a8.74,8.74,0,0,0,.781-2.32.035.035,0,0,1-.039-.039l.084-.044.09.044a2.4,2.4,0,0,1,.028-.455l-.079-.051h-.208a2.082,2.082,0,0,0-.416.09q-.173,0-.2-.253h-.039c0,.108-.03.163-.09.163h-.208a1.222,1.222,0,0,1-.741-.32l-.09.039a.665.665,0,0,0-.331-.163v-.039c0-.041.086-.127.258-.258l.124.09c0-.123.1-.221.286-.292a.035.035,0,0,1,.039.039q.556-.124,1.533-.247a.3.3,0,0,0,.163.045h.045c0-.056.013-.084.039-.084s.051.013.051.039q.371,0,.37-.41a2.375,2.375,0,0,1,.084-.668c0-.026-.015-.039-.045-.039a2.923,2.923,0,0,1,.208-.994c-.06,0-.09-.026-.09-.079v-.09a.084.084,0,0,1,.09-.084h.039a.035.035,0,0,1,.039.039Zm-3.269,3.106h.09v-.051h-.09Zm.163.112h.09V55.8h-.09Zm1.747.129h.079v-.079h-.079ZM109,58h.084v-.039H109Zm0,2.859h.084v-.039H109Zm.129.91h.079v-.039h-.079Zm.039-.449h.039v-.09h-.039Zm.129.32v.051h.084c0,.052-.045.078-.135.078v.039h.05l.2-.039v-.078a.264.264,0,0,1-.163-.051Zm.657-.691c0-.06.028-.09.073-.09,0,.03.017.045.051.045v-.084h-.124c-.056,0-.084.032-.084.084Zm.073-1.415h.09V59.5h-.09Zm0,.584h.051a.455.455,0,0,1,.247-.09l-.039-.084a.533.533,0,0,1-.258.129Zm.051.168h.039V60.2h-.039Zm.039,1.079h.045v-.09h-.045Zm.044-4.111h.084v-.034h-.084Zm0,3.769q.012.084.084.084v-.039a.075.075,0,0,0-.084-.084Zm.163-3.769h.09v-.034h-.09Zm0,2.657h.051v-.084h-.051Zm.09,1.859h.073v.039h-.073Zm.781.416-.039.168h.039l.079-.044a.436.436,0,0,1-.034-.124Z" transform="translate(-51.972 -25.708)" fill="#fff"/>
          <path id="Trazado_4224" data-name="Trazado 4224" d="M118.3,60.094a1.106,1.106,0,0,1,.292-.045,1.057,1.057,0,0,1,.281.3.407.407,0,0,1,.376.253v.079a.376.376,0,0,1-.039.169,1.728,1.728,0,0,1,.079.325,11.585,11.585,0,0,0-.584,1.079,1.361,1.361,0,0,1-1.106.7l-.084.129v.084c0,.146.013.382.039.707a2.493,2.493,0,0,0,1.32-1.123h.174v.169a3.622,3.622,0,0,0,.073.415,2.367,2.367,0,0,0-.455.747q-.1.269-.163.286l.039.084v.084a.314.314,0,0,0-.286.2q-.084,0-.331.214-.623-.118-.623-.3a3.253,3.253,0,0,1-.742-.286q-.146,0-.376-.247a2.809,2.809,0,0,1-.241-.578h.034l-.034-.084V63.2a.413.413,0,0,0-.039-.2,3.758,3.758,0,0,1,.82-2.151,1.7,1.7,0,0,1,1.247-.8c.2.03.313.045.331.045m-.539,2.112q.124,0,.46-.494.079,0,.118-.286-.421,0-.578.624Z" transform="translate(-56.618 -29.334)" fill="#fff"/>
          <path id="Trazado_4225" data-name="Trazado 4225" d="M128.5,58.326h.443q0,.05.135.163h-.051a.361.361,0,0,0,.253.292c.056.113.125.168.208.168a.035.035,0,0,1-.039.039,1.806,1.806,0,0,0,.2.533c0,.03-.013.045-.039.045l.124.2c-.038.172-.1.258-.174.258v.039h.09c0,.135-.03.2-.09.2l.051.079v.09l-.079-.039H129.4v.157l.163-.118v.045c0,.026-.009.039-.028.039l.028.079c-.03.1-.068.157-.113.157l.039.09c0,.049-.043.09-.129.124l.039.084a.41.41,0,0,1-.208.331.179.179,0,0,1-.2.2l.039.09a1.351,1.351,0,0,0-.371.528c0,.034.015.051.045.051a.393.393,0,0,1-.045.129,1.86,1.86,0,0,1,.045.326h-.045l.045.09q0,.2-.084.2l.039.078v.129c0,.023-.013.034-.039.034l.084.174c0,.082-.043.124-.129.124a.273.273,0,0,1,.084.163l-.039.084c0,.03.013.045.039.045a2.727,2.727,0,0,1-.123.618c.056,0,.084.03.084.079v.09l-.084.124h.084q0,.371-.118.371v.039h.073V65.2a.521.521,0,0,1-.073.242.447.447,0,0,1,.034.168v.051c-.082,0-.124.025-.124.073l.09.129V65.9h-.09v.079c.082,0,.124.015.124.045,0,.138-.027.208-.079.208l.045.084-.129.163v.039h.039v-.079h.045l.045.208q-.045.354-.045.41a.04.04,0,0,1,.045.045l-.09.039.045.079c0,.033-.015.05-.045.05l.045.084v.118a.074.074,0,0,1-.084.084l.039.084V67.8h-.039v-.073h-.084q0,.062.169.163a.217.217,0,0,0-.045.113c.03,0,.045.017.045.051l-.084.039.039.208a.08.08,0,0,1-.09.09c0-.026-.011-.039-.034-.039l-.044.073c.172,0,.258.1.258.3l-.045.084.286.624h.039l-.039.073a.729.729,0,0,0,.084.253c-.082,0-.124.028-.124.084l-.084-.039a1.636,1.636,0,0,0-.455.2q0-.056-.286-.163h-.039c0,.052-.015.079-.045.079q-.539-.118-.539-.455V69.43h.079c0-.06-.026-.09-.079-.09v.09h-.09a.436.436,0,0,0-.079-.3c.027,0,.039-.017.039-.051a.035.035,0,0,1-.039-.039h.039a2.578,2.578,0,0,1-.123-.488.335.335,0,0,0,.051-.2h-.09v-.213l.039-.084h-.079V68c0-.015.013-.023.039-.023a.668.668,0,0,1-.09-.337c0-.03.017-.045.051-.045l-.051-.078V67.1c0-.03.017-.045.051-.045l-.051-.084v-.123l.051-.084c-.034,0-.051-.009-.051-.028h.09l-.039-.174q.039-.624.039-.831c.026,0,.039-.011.039-.034h-.039l.09-.258a.256.256,0,0,1-.051-.158l.051-.084v-.129h.033v-.084a.415.415,0,0,0-.033-.163,2.816,2.816,0,0,0,.112-.41l-.039-.208q.028-.371.084-.371l-.045-.09v-.039c0-.026.015-.039.045-.039l-.045-.084c0-.026.015-.039.045-.039,0-.026-.015-.039-.045-.039l.09-.5h-.045a.393.393,0,0,0,.045-.129l-.129-.163-.073.045h-.09l-.09-.045c0,.078-.025.118-.073.118l-.084-.028c-.082,0-.124.037-.124.113h-.208a.035.035,0,0,1-.039-.039c-.03,0-.045.013-.045.039l-.213-.039-.073.039a.448.448,0,0,0-.2-.084c0,.03-.017.045-.051.045l-.039-.073c.011-.116.053-.174.124-.174l-.034-.073a.525.525,0,0,0,.236-.129,4.8,4.8,0,0,0,1.286-.331l-.039-.09v-.039h.084v-.078q0-.051-.045-.051l.045-.073a.327.327,0,0,0-.045-.174l.09-.163-.045-.079.045-.2h-.045l.084-.3-.039-.09.039-.41a.307.307,0,0,1-.039-.118q.1,0,.2-.421h.045l-.045-.079a.646.646,0,0,0,.078-.241h-.034q.309-.793.573-.921,0-.068.258-.2ZM127,66.352V66.4l.123.084v-.039Zm.208-1.236h.045v-.084h-.045Zm0,.123h.084V65.2h-.084Zm0,2.146h.084v-.028h-.084Zm.168,1.865v-.079c-.037,0-.078.043-.123.129a.233.233,0,0,1,.123-.051m.534-3.724v.135a.079.079,0,0,0,.09-.09v-.045Zm.292,2.7h.084v-.039H128.2Zm.5-7.667a.332.332,0,0,1,.039.168h.039a1.706,1.706,0,0,0,.208-.539h-.045l.045-.078v-.169c0-.053-.025-.079-.073-.079a2,2,0,0,0-.213.7" transform="translate(-61.414 -28.492)" fill="#fff"/>
          <path id="Trazado_4226" data-name="Trazado 4226" d="M135.729,58.939a.265.265,0,0,1,.151-.045q0,.045.214.185c0,.053.061.1.185.152a.309.309,0,0,1,.034.14v.191h.068v.073a.131.131,0,0,0-.135.146q.068,0,.068.034l.068-.034h.578a.329.329,0,0,0,.106.185V60h-.073v.045h.073l-.039.062c0,.053.037.079.113.079l-.073.1v.051h.073v.1h-.073v.112c0,.049.036.073.107.073v.068a1.318,1.318,0,0,0,.034.3l-.034.191a.482.482,0,0,0,.034.113l-.034.213v.079h-.107v.034c.071,0,.107.051.107.151l-.034.365c.023,0,.034.013.034.039h-.034l.034.068c0,.026-.011.039-.034.039a.4.4,0,0,0,.034.112q-.028.511-.146.511l.146.18v.039c0,.03-.011.045-.034.045a.4.4,0,0,1,.068.213v.113q.068,0,.275.505.281.034.2.331c.023.161-.1.26-.36.3q0,.078-.258.112a2.444,2.444,0,0,0-.719-.18,1.6,1.6,0,0,1-.618-.663c-.023,0-.034-.013-.034-.039,0-.049.039-.073.118-.073v-.034h-.219q-.078-.551-.213-.55c0,.033-.049.08-.146.14a.39.39,0,0,0-.112-.034l-.039.073a.239.239,0,0,1,.039.113l-.213.191h-.039c0-.1-.023-.146-.068-.146s-.068.049-.068.146h-.084v-.079h-.1v.034h.068l-.034.185h-.034l-.18-.039v.073h-.4a1.584,1.584,0,0,1-.612-.174h-.1v-.079h-.034v.079h-.146a.559.559,0,0,0-.113-.23q-.084,0-.14-.4h-.073v-.113c0-.044.036-.067.106-.067l-.106-.191v-.1l.073-.113v-.034c-.041,0-.079-.028-.113-.084l.039-.174v-.113c.063,0,.11-.11.14-.331a1.429,1.429,0,0,0,.292-.6c.034,0,.1-.12.214-.36l.292-.438q.281-.489.353-.488.163,0,.292-.365l.141-.113-.039-.073v-.034q.382-.511.511-.511,0,.089.781.185m-1.64,2.831h.034v-.079h-.034Zm.528-.23v.045a.673.673,0,0,0-.18.444c-.041,0-.075.084-.1.253q-.18,0-.18.326c-.022,0-.034.052-.034.157a.536.536,0,0,1,.281-.157l-.034-.073V62.5h.107l-.039-.068v-.039q.292-.281.3-.449a.389.389,0,0,0,.247-.36c.037-.011.084-.075.141-.191l-.039-.068c.056,0,.118-.1.185-.292v-.113a.27.27,0,0,1-.067-.146c-.053,0-.15.106-.292.32a1.234,1.234,0,0,0-.214.343.41.41,0,0,1-.112.033Zm.617-1.022v.174h.034a.292.292,0,0,1,.073-.141l-.073-.033Zm.714,3.561c.011.052.037.078.079.078h.034c0-.052-.025-.078-.073-.078Zm.331-2.826h.034V61.18h-.034Zm.14.809h.073v-.034h-.073Zm.107.876h.068V62.9h-.068Z" transform="translate(-64.831 -28.701)" fill="#fff"/>
          <path id="Trazado_4227" data-name="Trazado 4227" d="M144.535,61.048c.011-.053.036-.079.073-.079v.039l.09-.039h.079q.253.208.253.371l-.039.2a.335.335,0,0,1,.039.124,1.918,1.918,0,0,1-.37.5q-.225,0-.506.708h-.163v.034h.09l-.163.168a.082.082,0,0,1,.073.084,2.561,2.561,0,0,1-.2.371.035.035,0,0,0,.039.039l-.039.3v.2l.039.079a4.591,4.591,0,0,0,.949-.7,2.331,2.331,0,0,0,.669-.371c.131-.064.2-.12.2-.168l.09.039a1.483,1.483,0,0,1,.533-.158q.545,0,.545.118l-.051.208a.319.319,0,0,1,.051.129q-.871.252-.871.533-.281,0-1.286.91a1.771,1.771,0,0,1-.781.376q0-.045-.051-.045v.045c.034,0,.051.013.051.039h-.051c-.138,0-.208-.028-.208-.084-.026,0-.039.015-.039.045q-.994-.3-.994-.826h.045l-.045-.09V64.07l.045-.084c-.06,0-.09-.026-.09-.079v-.084a.3.3,0,0,1,.045-.169.04.04,0,0,0-.045-.045c0-.243.056-.365.168-.365v-.039h-.079V63.16a3.258,3.258,0,0,1,.528-1.494q0-.084.129-.169l-.039-.073V61.34q.157,0,.281-.253.219,0,.3-.281a3.715,3.715,0,0,0,.708.241m-1.826,3.4v.039l.09.039v-.039Zm.247-2.191H143v-.09h-.045Zm.624-.831h.084V61.38h-.084Zm.871,3.185h.084v-.084h-.084Zm.376-2.983v.039l.079.045v-.045Z" transform="translate(-69.632 -29.704)" fill="#fff"/>
          <path id="Trazado_4228" data-name="Trazado 4228" d="M150.782,57.737l.09-.045q.618.152.617.416a.439.439,0,0,0-.09.247h.051q-.051.252-.084.253l.034.084a.407.407,0,0,1-.034.163.438.438,0,0,1,.034.163c0,.026-.011.039-.034.039l.034.084c-.023.09-.047.135-.073.135l.039.073v.129h-.079c0,.053.037.079.113.079V59.6l-.073.135c.026,0,.039.01.039.028h-.039a.383.383,0,0,1,.039.135c0,.135-.026.2-.079.2l.039.079v.253c0,.056-.043.084-.129.084q.1.572.169.573h.034a.471.471,0,0,1,.213-.113q.337.012.337.113a2.112,2.112,0,0,0-.09.539l.045.09q0,.4-.618.662a3.827,3.827,0,0,0-.876-.163v-.051l-.073.051q-.241,0-.545-.46h-.045l.045-.079c-.082,0-.138-.1-.168-.292v-.039a.344.344,0,0,0,.045-.129c-.06,0-.09-.026-.09-.078,0-.034.015-.051.045-.051L149.58,61a.244.244,0,0,0,.045-.118.04.04,0,0,1-.045-.045l.09-.039-.045-.073v-.051l.045-.208h-.045a1.269,1.269,0,0,0,.084-.371h.039l.084.039V60.1a.035.035,0,0,1-.039-.039c.1,0,.158-.03.158-.09v-.034h-.034l-.169.123v-.123a.344.344,0,0,1,.045-.174.3.3,0,0,1-.045-.163v-.079q.13,0,.169-.747l-.039-.163q0-.252.118-.253v-.118l-.045-.09c.06,0,.09-.026.09-.079q-.124-.039-.123-.253c0-.037.082-.146.247-.326ZM150,59.647h.084V59.6H150Zm2.482-4.977c0-.026.017-.039.051-.039v.039a1.186,1.186,0,0,0-.124.506,1.272,1.272,0,0,0-.668.573q0,.061-.158.163l.034.084c0,.075-.208.157-.624.247a3.648,3.648,0,0,1-.781-.247v-.124l.079.039h.05v-.039h-.09a2.31,2.31,0,0,0,.41-.494q.152,0,.742-.584c.09-.03.2-.06.326-.09q.23-.061.505-.123a.618.618,0,0,0,.247.09M150.5,61h.039v-.073H150.5Zm.073-1.443h.039v-.079h-.039Zm.3,1.415h.039v-.09h-.039Z" transform="translate(-73.07 -26.663)" fill="#fff"/>
          <path id="Trazado_4229" data-name="Trazado 4229" d="M156.364,47.724l.213-.039q.309.045.528.494.061,0,.213.286-.056,0-.168.3a.278.278,0,0,1,.044.157c0,.109-.044.163-.135.163v.051c.019.056.049.084.09.084l-.045.073a2.068,2.068,0,0,1,.045.371.04.04,0,0,1-.045.045l.045.084c0,.041-.039.082-.118.124a1.17,1.17,0,0,1,.073.337q-.017.163-.118.163a6.1,6.1,0,0,1,.073.618q-.068,0-.113.371l.084.258q-.1.174-.174.2c0,.03.013.045.039.045a1.162,1.162,0,0,1-.112.495.074.074,0,0,1,.073.078v.129c0,.056-.041.084-.124.084l.09.118q-.045.371-.169.371l.039.084v.163c0,.034-.013.051-.039.051l.039.079v.168a.848.848,0,0,1-.118.41.075.075,0,0,1,.079.084v.123l-.168.051v.028l.168.174q-.09,0-.129.281a.315.315,0,0,1,.05.135h-.05a.207.207,0,0,1,.05.118,1.307,1.307,0,0,0-.135.415c.03,0,.045.013.045.039-.109.041-.163.084-.163.129v.039h.09l.073-.039.039.078a.264.264,0,0,1-.163.051v.034c.109,0,.163.026.163.079l-.084.051h-.028v-.09c-.06,0-.09.034-.09.09.135.067.2.12.2.157h-.039c0,.03.013.045.039.045,0,.053-.013.079-.039.079l.039.415v.416c.071.139.127.208.168.208h.039a1.737,1.737,0,0,0,.416-.792l.168-.118h.084q.1,0,.2.539-.2.989-.455.989a1.756,1.756,0,0,1-.495.59v.034l.039.084-.079.039c-.026-.082-.11-.124-.253-.124a.035.035,0,0,0-.039.039l-.168-.073c0,.037-.043.077-.129.118h-.118c-.026,0-.039-.015-.039-.045a.463.463,0,0,1-.253.084h-.039a.64.64,0,0,1-.539-.248v-.123q-.259-.073-.326-.45h.045c-.082-.251-.143-.376-.18-.376l.051-.084v-.045c-.056,0-.084-.013-.084-.039s.011-.039.034-.039l-.079-.707h.045L154.5,56.5a1.012,1.012,0,0,1,.079-.286,1.737,1.737,0,0,1-.034-.292.341.341,0,0,0,.034-.124c-.022,0-.034-.013-.034-.039a.375.375,0,0,1,.169-.039v-.079h-.045l-.09.034-.034-.084v-.039a.471.471,0,0,1,.124-.292l-.124-.079a.607.607,0,0,1,.124-.37h-.09v-.039a.045.045,0,0,1,.051-.051l-.051-.079a.091.091,0,0,1,.09-.079c-.03-.142-.071-.213-.124-.213a.719.719,0,0,1,.124-.292c-.041,0-.082-.039-.124-.118l.124-.506-.039-.073v-.09q0-.292.2-.292v-.034h-.039a.379.379,0,0,1-.123.034l-.039-.079.039-.084a.271.271,0,0,1-.039-.118c.09,0,.144-.115.163-.343q-.078,0-.078-.034a5.769,5.769,0,0,1,.281-1.651.428.428,0,0,0-.034-.129q.124-.674.208-.674l-.051-.073q.163-1.281.292-1.28-.073-.433-.073-.455l.2-.168h.118v.084h.09q0-.163.41-.286Zm-1.736,6.128q.005.084.084.084l.045-.084Zm0,1.163h.039V54.93h-.039Zm0,.994a.286.286,0,0,1,.129-.051V55.88a.574.574,0,0,1-.129-.034Zm.039-2h.09v-.034h-.09Zm.292-2.606v.129c.053,0,.079-.028.079-.084Zm.91,3.938h.039v-.084h-.039Zm.039-7.414h.045v-.084h-.045Zm.247,6.3h.084v-.084h-.084Zm.123.584.084.034c.053,0,.079-.025.079-.073s-.026-.09-.079-.09Zm.248-1.865h.09V52.9h-.09Zm.05.747h.039V53.6h-.039Zm.118-1.578h.09a.08.08,0,0,0-.09-.09Zm.129-.663h.034v-.084h-.034Z" transform="translate(-75.473 -23.294)" fill="#fff"/>
          <path id="Trazado_4230" data-name="Trazado 4230" d="M161.434,57.737l.09-.045q.618.152.618.416a.436.436,0,0,0-.09.247h.051c-.034.168-.061.253-.084.253l.033.084a.406.406,0,0,1-.033.163.437.437,0,0,1,.033.163c0,.026-.011.039-.033.039l.033.084c-.022.09-.047.135-.073.135l.039.073v.129h-.079c0,.053.037.079.112.079V59.6l-.073.135c.026,0,.039.01.039.028h-.039a.383.383,0,0,1,.039.135c0,.135-.026.2-.079.2l.039.079v.253c0,.056-.043.084-.129.084q.1.572.169.573h.033a.474.474,0,0,1,.214-.113q.337.012.337.113a2.112,2.112,0,0,0-.09.539l.045.09q0,.4-.618.662a3.827,3.827,0,0,0-.876-.163v-.051l-.073.051q-.242,0-.545-.46H160.4l.045-.079c-.082,0-.139-.1-.169-.292v-.039a.344.344,0,0,0,.045-.129c-.06,0-.09-.026-.09-.078q0-.051.044-.051L160.232,61a.248.248,0,0,0,.044-.118.04.04,0,0,1-.044-.045l.09-.039-.045-.073v-.051l.045-.208h-.045a1.264,1.264,0,0,0,.084-.371h.039l.084.039V60.1a.035.035,0,0,1-.039-.039c.1,0,.157-.03.157-.09v-.034h-.034l-.168.123v-.123a.344.344,0,0,1,.045-.174.3.3,0,0,1-.045-.163v-.079q.13,0,.168-.747l-.039-.163c0-.168.039-.253.118-.253v-.118l-.045-.09c.06,0,.09-.026.09-.079q-.124-.039-.124-.253c0-.037.082-.146.248-.326Zm-.787,1.91h.084V59.6h-.084Zm2.483-4.977c0-.026.017-.039.051-.039v.039a1.185,1.185,0,0,0-.124.506,1.275,1.275,0,0,0-.669.573c0,.041-.052.1-.157.163l.034.084c0,.075-.208.157-.624.247a3.649,3.649,0,0,1-.781-.247v-.124l.079.039h.051v-.039h-.09a2.3,2.3,0,0,0,.41-.494q.152,0,.741-.584c.09-.03.2-.06.326-.09.154-.041.322-.082.506-.123a.616.616,0,0,0,.247.09M161.153,61h.039v-.073h-.039Zm.073-1.443h.039v-.079h-.039Zm.3,1.415h.039v-.09h-.039Z" transform="translate(-78.274 -26.663)" fill="#fff"/>
          <path id="Trazado_4231" data-name="Trazado 4231" d="M165.24,52.626a1.008,1.008,0,0,1,.662.41c0,.052.015.079.045.079l-.045.2V53.7l-.073.112a.08.08,0,0,1,.073.09v.786a.08.08,0,0,0,.09.073,7.29,7.29,0,0,0,1.078-.2h.039l.084.039c0-.053.1-.092.292-.118.008.053.032.079.073.079q0-.13.792-.169v.039a.7.7,0,0,1,.326-.079,2.6,2.6,0,0,0,.258.039.276.276,0,0,1,.124-.039,1.079,1.079,0,0,0,.494.41c0,.034-.013.051-.039.051l.039.292v.118h-.247a.351.351,0,0,1-.169-.039,2.538,2.538,0,0,0-.617.376l-.2-.051c-.27.034-.436.051-.5.051a.045.045,0,0,0-.051-.051l-.039.084-.208-.034a3.035,3.035,0,0,1-1,.208v-.039c-.056,0-.163.08-.32.241q-.252,0-.253.129v.618h-.084a1.117,1.117,0,0,0,.129.461.4.4,0,0,0-.09.2.221.221,0,0,0,.045.118,3.415,3.415,0,0,1-.084.55.307.307,0,0,1,.039.157h-.039l.039.084V59a.371.371,0,0,1-.039.168.309.309,0,0,1,.039.158v.292l-.112.168c.045,0,.082.043.112.129v.118c0,.03-.013.045-.039.045l.039.079a9.9,9.9,0,0,1-.073,1.078.47.47,0,0,1,.034.163.274.274,0,0,1-.163.084v.051c.086,0,.129.025.129.073v.039l-.09.129v.214a.181.181,0,0,1,.208.2q.382,0,1.079-1.2.1-.264.213-.292c.049,0,.088.1.118.292a.317.317,0,0,0-.045.168l.045.214a.575.575,0,0,1-.247.483l-.084-.039h-.045v.039h.09V61.9l-.045.084c.056,0,.084.009.084.028a.518.518,0,0,1-.241.342q0,.163-.3.281a.4.4,0,0,0-.163-.028q0,.207-.416.32h-.129c0,.108-.148.163-.444.163a.678.678,0,0,1-.6-.41l.09-.123h-.045l-.073.051-.3-.759c.03,0,.045-.013.045-.039q-.1,0-.163-.37a.411.411,0,0,0,.034-.163c-.049,0-.073-.028-.073-.084v-.084a.035.035,0,0,1,.039-.039.532.532,0,0,1-.09-.247c0-.086.041-.129.123-.129v-.079l-.123.079V60.4a.253.253,0,0,1,.051-.157.273.273,0,0,1-.051-.169l.09-.045-.039-.084v-.034a.035.035,0,0,1,.039-.039c-.018-.113-.048-.169-.09-.169a3.712,3.712,0,0,1,.123-.792,2.085,2.085,0,0,1-.073-.376h-.051q-.113.377-.2.376l.039.084a1.3,1.3,0,0,1-.41.578h-.135l-.034.084-.084-.045a.406.406,0,0,1-.2.09c0-.06-.084-.116-.253-.168V59.5l.253-.337h.039l-.039-.084a8.741,8.741,0,0,0,.781-2.32.035.035,0,0,1-.039-.039l.084-.044.09.044a2.4,2.4,0,0,1,.028-.455l-.079-.051h-.208a2.081,2.081,0,0,0-.416.09q-.173,0-.2-.253h-.039c0,.108-.03.163-.09.163h-.208a1.222,1.222,0,0,1-.741-.32l-.09.039a.665.665,0,0,0-.331-.163v-.039c0-.041.086-.127.258-.258l.124.09c0-.123.1-.221.286-.292a.035.035,0,0,1,.039.039q.556-.124,1.533-.247a.3.3,0,0,0,.163.045h.045c0-.056.013-.084.039-.084s.051.013.051.039q.371,0,.37-.41a2.376,2.376,0,0,1,.084-.668c0-.026-.015-.039-.045-.039a2.924,2.924,0,0,1,.208-.994c-.06,0-.09-.026-.09-.079v-.09a.084.084,0,0,1,.09-.084H165a.035.035,0,0,1,.039.039Zm-3.269,3.106h.09v-.051h-.09Zm.163.112h.09V55.8h-.09Zm1.747.129h.079v-.079h-.079ZM164.414,58h.084v-.039h-.084Zm0,2.859h.084v-.039h-.084Zm.129.91h.079v-.039h-.079Zm.039-.449h.039v-.09h-.039Zm.129.32v.051h.084c0,.052-.045.078-.135.078v.039h.05l.2-.039v-.078a.264.264,0,0,1-.163-.051Zm.657-.691c0-.06.028-.09.073-.09,0,.03.017.045.051.045v-.084h-.124c-.056,0-.084.032-.084.084Zm.073-1.415h.09V59.5h-.09Zm0,.584h.051a.455.455,0,0,1,.247-.09l-.039-.084a.533.533,0,0,1-.258.129Zm.051.168h.039V60.2h-.039Zm.039,1.079h.045v-.09h-.045Zm.045-4.111h.084v-.034h-.084Zm0,3.769q.012.084.084.084v-.039a.075.075,0,0,0-.084-.084Zm.163-3.769h.09v-.034h-.09Zm0,2.657h.051v-.084h-.051Zm.09,1.859h.073v.039h-.073Zm.781.416-.039.168h.039l.079-.044a.436.436,0,0,1-.034-.124Z" transform="translate(-79.041 -25.708)" fill="#fff"/>
          <path id="Trazado_4232" data-name="Trazado 4232" d="M174.613,58.939a.266.266,0,0,1,.151-.045q0,.045.214.185c0,.053.061.1.185.152a.309.309,0,0,1,.034.14v.191h.068v.073a.131.131,0,0,0-.135.146q.068,0,.068.034l.068-.034h.578a.329.329,0,0,0,.106.185V60h-.073v.045h.073l-.039.062c0,.053.037.079.112.079l-.073.1v.051h.073v.1h-.073v.112c0,.049.036.073.107.073v.068a1.318,1.318,0,0,0,.034.3l-.034.191a.482.482,0,0,0,.034.113l-.034.213v.079h-.107v.034c.071,0,.107.051.107.151l-.034.365c.023,0,.034.013.034.039h-.034l.034.068c0,.026-.011.039-.034.039a.4.4,0,0,0,.034.112q-.028.511-.146.511l.146.18v.039c0,.03-.011.045-.034.045a.4.4,0,0,1,.068.213v.113q.068,0,.275.505.281.034.2.331c.023.161-.1.26-.359.3q0,.078-.259.112a2.443,2.443,0,0,0-.719-.18,1.6,1.6,0,0,1-.618-.663c-.023,0-.034-.013-.034-.039,0-.049.039-.073.118-.073v-.034h-.219q-.078-.551-.213-.55c0,.033-.049.08-.146.14a.4.4,0,0,0-.113-.034l-.039.073a.239.239,0,0,1,.039.113l-.213.191h-.039c0-.1-.023-.146-.068-.146s-.068.049-.068.146h-.084v-.079h-.1v.034h.068l-.034.185h-.034l-.18-.039v.073h-.4a1.584,1.584,0,0,1-.612-.174h-.1v-.079h-.034v.079h-.146a.559.559,0,0,0-.113-.23q-.084,0-.14-.4h-.073v-.113c0-.044.036-.067.107-.067l-.107-.191v-.1l.073-.113v-.034c-.041,0-.079-.028-.113-.084l.039-.174v-.113c.064,0,.11-.11.14-.331a1.429,1.429,0,0,0,.292-.6c.034,0,.1-.12.214-.36l.292-.438q.281-.489.354-.488.163,0,.292-.365l.14-.113-.039-.073v-.034q.382-.511.512-.511,0,.089.781.185m-1.64,2.831h.034v-.079h-.034Zm.528-.23v.045a.673.673,0,0,0-.18.444c-.041,0-.075.084-.1.253q-.18,0-.18.326c-.023,0-.034.052-.034.157a.536.536,0,0,1,.281-.157l-.034-.073V62.5h.107l-.039-.068v-.039q.292-.281.3-.449a.388.388,0,0,0,.247-.36c.037-.011.084-.075.141-.191l-.039-.068c.056,0,.118-.1.185-.292v-.113a.274.274,0,0,1-.067-.146c-.053,0-.15.106-.292.32a1.234,1.234,0,0,0-.214.343.4.4,0,0,1-.112.033Zm.618-1.022v.174h.033a.292.292,0,0,1,.073-.141l-.073-.033Zm.713,3.561c.011.052.037.078.079.078h.034c0-.052-.025-.078-.073-.078Zm.331-2.826h.034V61.18h-.034Zm.141.809h.073v-.034H175.3Zm.106.876h.068V62.9h-.068Z" transform="translate(-83.826 -28.701)" fill="#fff"/>
          <path id="Trazado_4233" data-name="Trazado 4233" d="M188.8,47.724l.214-.039q.308.045.528.494.062,0,.213.286-.056,0-.168.3a.279.279,0,0,1,.045.157c0,.109-.045.163-.135.163v.051c.019.056.049.084.09.084l-.045.073a2.022,2.022,0,0,1,.045.371.04.04,0,0,1-.045.045l.045.084c0,.041-.039.082-.118.124a1.17,1.17,0,0,1,.073.337q-.017.163-.118.163a6.109,6.109,0,0,1,.073.618q-.068,0-.113.371l.084.258q-.1.174-.174.2c0,.03.013.045.039.045a1.159,1.159,0,0,1-.113.495.074.074,0,0,1,.073.078v.129c0,.056-.041.084-.124.084l.09.118q-.045.371-.169.371l.039.084v.163c0,.034-.013.051-.039.051l.039.079v.168a.853.853,0,0,1-.118.41.075.075,0,0,1,.078.084v.123l-.168.051v.028l.168.174q-.09,0-.129.281a.318.318,0,0,1,.051.135h-.051a.208.208,0,0,1,.051.118,1.293,1.293,0,0,0-.135.415c.03,0,.045.013.045.039-.109.041-.163.084-.163.129v.039h.09l.073-.039.039.078a.264.264,0,0,1-.163.051v.034c.109,0,.163.026.163.079l-.084.051h-.028v-.09a.082.082,0,0,0-.09.09c.135.067.2.12.2.157h-.039c0,.03.013.045.039.045,0,.053-.013.079-.039.079l.039.415v.416q.107.208.168.208h.039a1.737,1.737,0,0,0,.416-.792l.168-.118h.084q.1,0,.2.539-.2.989-.455.989a1.756,1.756,0,0,1-.495.59v.034l.039.084-.078.039c-.027-.082-.11-.124-.253-.124a.035.035,0,0,0-.039.039l-.169-.073q0,.056-.129.118h-.118c-.026,0-.039-.015-.039-.045a.463.463,0,0,1-.253.084h-.039a.641.641,0,0,1-.539-.248v-.123q-.259-.073-.326-.45h.045c-.082-.251-.143-.376-.18-.376l.051-.084v-.045c-.056,0-.084-.013-.084-.039s.011-.039.034-.039l-.078-.707h.044l-.044-.084a1,1,0,0,1,.078-.286,1.735,1.735,0,0,1-.034-.292.342.342,0,0,0,.034-.124c-.023,0-.034-.013-.034-.039a.375.375,0,0,1,.169-.039v-.079h-.045l-.09.034-.034-.084v-.039a.47.47,0,0,1,.124-.292l-.124-.079a.607.607,0,0,1,.124-.37h-.09v-.039a.045.045,0,0,1,.051-.051l-.051-.079a.091.091,0,0,1,.09-.079c-.03-.142-.071-.213-.124-.213a.719.719,0,0,1,.124-.292c-.041,0-.082-.039-.124-.118l.124-.506-.039-.073v-.09q0-.292.2-.292v-.034h-.039a.385.385,0,0,1-.124.034l-.039-.079.039-.084a.271.271,0,0,1-.039-.118c.09,0,.144-.115.163-.343-.053,0-.079-.011-.079-.034a5.788,5.788,0,0,1,.281-1.651.428.428,0,0,0-.034-.129q.124-.674.208-.674l-.05-.073q.163-1.281.292-1.28-.073-.433-.073-.455l.2-.168h.118v.084h.09q0-.163.41-.286Zm-1.736,6.128q.005.084.084.084l.045-.084Zm0,1.163h.039V54.93h-.039Zm0,.994a.287.287,0,0,1,.129-.051V55.88a.575.575,0,0,1-.129-.034Zm.039-2h.09v-.034h-.09ZM187.4,51.4v.129c.053,0,.079-.028.079-.084Zm.91,3.938h.039v-.084h-.039Zm.039-7.414h.045v-.084h-.045Zm.247,6.3h.084v-.084h-.084Zm.124.584.084.034c.053,0,.079-.025.079-.073s-.026-.09-.079-.09Zm.247-1.865h.09V52.9h-.09Zm.051.747h.039V53.6h-.039Zm.118-1.578h.09a.08.08,0,0,0-.09-.09Zm.129-.663h.034v-.084h-.034Z" transform="translate(-91.32 -23.294)" fill="#fff"/>
          <path id="Trazado_4234" data-name="Trazado 4234" d="M195.686,58.939a.264.264,0,0,1,.151-.045q0,.045.213.185,0,.079.186.152a.309.309,0,0,1,.034.14v.191h.067v.073a.13.13,0,0,0-.135.146q.068,0,.068.034l.067-.034h.578a.331.331,0,0,0,.107.185V60h-.073v.045h.073l-.039.062c0,.053.037.079.113.079l-.073.1v.051h.073v.1h-.073v.112c0,.049.036.073.107.073v.068a1.318,1.318,0,0,0,.034.3l-.034.191a.482.482,0,0,0,.034.113l-.034.213v.079h-.107v.034c.071,0,.107.051.107.151l-.034.365c.023,0,.034.013.034.039H197.1l.034.068c0,.026-.011.039-.034.039a.4.4,0,0,0,.034.112q-.028.511-.146.511l.146.18v.039c0,.03-.011.045-.034.045a.4.4,0,0,1,.068.213v.113q.068,0,.275.505.281.034.2.331c.023.161-.1.26-.36.3q0,.078-.258.112a2.443,2.443,0,0,0-.719-.18,1.591,1.591,0,0,1-.618-.663c-.023,0-.034-.013-.034-.039,0-.049.039-.073.118-.073v-.034h-.219c-.053-.367-.123-.55-.213-.55,0,.033-.049.08-.146.14a.4.4,0,0,0-.112-.034l-.039.073a.239.239,0,0,1,.039.113l-.214.191h-.039c0-.1-.023-.146-.068-.146s-.068.049-.068.146h-.084v-.079h-.1v.034h.067l-.034.185h-.033l-.18-.039v.073h-.4a1.584,1.584,0,0,1-.612-.174h-.1v-.079h-.034v.079h-.146a.559.559,0,0,0-.113-.23q-.084,0-.141-.4h-.073v-.113c0-.044.035-.067.106-.067l-.106-.191v-.1l.073-.113v-.034q-.061,0-.112-.084l.039-.174v-.113c.063,0,.11-.11.14-.331a1.436,1.436,0,0,0,.292-.6c.034,0,.1-.12.213-.36l.293-.438q.281-.489.353-.488.163,0,.292-.365l.141-.113-.039-.073v-.034q.382-.511.511-.511,0,.089.781.185m-1.64,2.831h.034v-.079h-.034Zm.528-.23v.045a.675.675,0,0,0-.18.444c-.041,0-.075.084-.1.253q-.18,0-.18.326c-.023,0-.034.052-.034.157a.535.535,0,0,1,.281-.157l-.034-.073V62.5h.107l-.039-.068v-.039c.194-.187.294-.337.3-.449a.389.389,0,0,0,.247-.36c.037-.011.084-.075.141-.191l-.039-.068c.056,0,.118-.1.185-.292v-.113a.271.271,0,0,1-.068-.146c-.052,0-.149.106-.292.32a1.247,1.247,0,0,0-.213.343.407.407,0,0,1-.113.033Zm.618-1.022v.174h.034a.292.292,0,0,1,.073-.141l-.073-.033Zm.714,3.561c.011.052.037.078.079.078h.034c0-.052-.025-.078-.073-.078Zm.331-2.826h.034V61.18h-.034Zm.14.809h.073v-.034h-.073Zm.107.876h.068V62.9h-.068Z" transform="translate(-94.12 -28.701)" fill="#fff"/>
          <path id="Trazado_4235" data-name="Trazado 4235" d="M210.776,59.743c.037.078.065.118.084.118l-.034.084v.084l.034.084c-.056.008-.084.034-.084.079s.017.045.051.045a3.646,3.646,0,0,0-.5,1.37.136.136,0,0,1-.123.079v.039h.123l-.039.09v.241a.035.035,0,0,0,.039.039c0,.034-.013.051-.039.051l.039.2q-.056.579-.123.579l.034.084v.045h-.079c0,.026.015.039.045.039a2.246,2.246,0,0,1-.337,1.028h-.039l.039.09c-.045,0-.1.121-.168.365a1.33,1.33,0,0,1-.36.253v-.039l.039-.079h-.039a.574.574,0,0,1-.129.034l.039.084v.044h-.079v-.163h-.09v.079L209,64.747h-.213l-.079.045v-.045l-.09.045a.23.23,0,0,0-.157-.045v.045q-.4-.287-.416-.376l.045-.079h-.045c0,.026-.015.039-.045.039l-.112-.253c.026,0,.039-.011.039-.034q-.135,0-.208-.455c-.03,0-.045-.017-.045-.051l.045-.084c-.03,0-.045-.009-.045-.028h.045l-.09-.174q.045,0,.045-.034h-.084l-.051-.41h.051l-.051-.09.051-.09h-.051c0,.03-.008.045-.023.045V62.3l-.051-.247.051-.079a.263.263,0,0,1-.051-.163v-.039a.045.045,0,0,1,.051-.051l-.051-.084v-.163a.045.045,0,0,1,.051-.051.6.6,0,0,1-.09-.32.035.035,0,0,0,.039-.039h-.084V60.81l.045-.073a.264.264,0,0,1-.163-.09q-.253.421-.371.421l-.213.039-.084-.039a.436.436,0,0,1-.247.084l-.208-.135c0,.034-.013.051-.039.051-.045-.112-.086-.168-.124-.168q0-.147.326-.331a2.251,2.251,0,0,1,.59-.494q0-.073.371-.253c0,.056.028.084.073.084q0-.163.624-.163a.538.538,0,0,1,.5.37.04.04,0,0,0-.045.045h.045a.04.04,0,0,1,.045-.045l.073.124-.034.079c.082,0,.124.084.124.253-.034,0-.051.013-.051.039h.09v.039c0,.034-.013.05-.039.05a2.861,2.861,0,0,1,.118.618l-.034.2a.421.421,0,0,1,.034.168l-.079-.045v.045c.086.026.129.056.129.09l-.129.2h.045c0-.03.011-.045.034-.045,0,.109.03.163.09.163l-.039.163a1.225,1.225,0,0,0,.129.6c-.086,0-.129.025-.129.073L209,63.1l.168-.241c0-.034-.015-.051-.045-.051.034-.138.075-.208.124-.208a.446.446,0,0,1-.039-.129,6.428,6.428,0,0,0,.2-1.039,5.964,5.964,0,0,0,.337-.9q.051,0,.208-.337H210l-.039-.079a1.913,1.913,0,0,1,.871-.415c0,.03-.017.045-.051.045m-4.718,1.112h.084V60.81h-.084Zm1.573,1.376v.028l.09.045v-.045Zm.045-1.455h.124v-.039h-.124Zm.124-.208h.09v-.039h-.09Zm.129.989a.44.44,0,0,1,.033.129H208v-.079Zm.033,2.4v.051l.084.039v-.039Zm.084-.2v-.079H208v.079l.09.045.079-.124v-.039c-.053,0-.079.039-.079.118Zm.045-1.4h.079l.045-.09a.248.248,0,0,1-.124.045Zm.208.528q0,.135-.208.135v.045h.168l.084-.129v-.051Zm-.084.258-.045.09v.039h.045a.35.35,0,0,1,.044-.129Zm0-.741v.039l.084.034v-.034Zm.084.871-.084.118h.044c0-.056.039-.084.118-.084v-.034Zm-.039-2.9h.039v-.09h-.039Zm0,2.23v.079c.056,0,.084-.026.084-.079Zm.084,1.078-.045.079h.045l.034-.079Zm0-.039h.034v-.09h-.034Zm.118-1.2-.045.073h.045l.045-.073Zm-.045.949h.045V63.3h-.045Zm.2.2-.073.129h.034l.09-.129Zm-.039.168a.574.574,0,0,1-.034.129h.034l.039-.084v-.045Zm-.034.337h.034v-.084h-.034Zm.292-.505-.05.09h.05l.039-.09Zm.039-.286h.039v-.073h-.039Zm.2.2v-.073c-.053,0-.079.028-.079.073Zm.376.084h.039V63.5h-.039Zm.242-.41v.051l.09.039v-.039Zm.258.326-.039.084v.051h.039c0-.06.024-.09.073-.09V63.5Zm.039-.236h.034v-.09H210Zm.163-1.837v.09h.129c0-.06-.028-.09-.084-.09Z" transform="translate(-100.621 -29.163)" fill="#fff"/>
          <path id="Trazado_4236" data-name="Trazado 4236" d="M216.537,57.737l.09-.045q.618.152.618.416a.435.435,0,0,0-.09.247h.051q-.051.252-.084.253l.034.084a.407.407,0,0,1-.034.163.438.438,0,0,1,.034.163c0,.026-.011.039-.034.039l.034.084c-.023.09-.047.135-.073.135l.039.073v.129h-.079c0,.053.037.079.113.079V59.6l-.073.135c.026,0,.039.01.039.028h-.039a.383.383,0,0,1,.039.135c0,.135-.026.2-.079.2l.039.079v.253c0,.056-.043.084-.129.084q.1.572.169.573h.034a.471.471,0,0,1,.213-.113q.337.012.337.113a2.113,2.113,0,0,0-.09.539l.045.09q0,.4-.618.662a3.827,3.827,0,0,0-.876-.163v-.051l-.073.051q-.241,0-.545-.46H215.5l.045-.079c-.082,0-.139-.1-.168-.292v-.039a.35.35,0,0,0,.044-.129c-.059,0-.09-.026-.09-.078,0-.034.015-.051.045-.051L215.335,61a.244.244,0,0,0,.045-.118.04.04,0,0,1-.045-.045l.09-.039-.044-.073v-.051l.044-.208h-.044a1.288,1.288,0,0,0,.084-.371h.039l.084.039V60.1a.035.035,0,0,1-.039-.039c.1,0,.158-.03.158-.09v-.034h-.034l-.169.123v-.123a.344.344,0,0,1,.045-.174.3.3,0,0,1-.045-.163v-.079q.13,0,.169-.747l-.039-.163q0-.252.118-.253v-.118l-.044-.09c.059,0,.09-.026.09-.079q-.124-.039-.123-.253c0-.037.082-.146.247-.326Zm-.787,1.91h.084V59.6h-.084Zm2.483-4.977c0-.026.017-.039.051-.039v.039a1.185,1.185,0,0,0-.124.506,1.272,1.272,0,0,0-.668.573q0,.061-.158.163l.034.084c0,.075-.208.157-.624.247a3.639,3.639,0,0,1-.781-.247v-.124l.078.039h.051v-.039H216a2.31,2.31,0,0,0,.41-.494q.152,0,.742-.584c.09-.03.2-.06.326-.09q.23-.061.505-.123a.618.618,0,0,0,.247.09M216.256,61h.039v-.073h-.039Zm.073-1.443h.039v-.079h-.039Zm.3,1.415h.039v-.09h-.039Z" transform="translate(-105.192 -26.663)" fill="#fff"/>
          <path id="Trazado_4237" data-name="Trazado 4237" d="M223.894,55.774c.086-.03.129-.058.129-.084q.662.219.662.371l-.033.09c.011.109.035.163.073.163a2.065,2.065,0,0,0-.163.657l.045.09a.244.244,0,0,0-.045.118h.045q-.039.163-.084.163l.039.09v.118l-.039.415q.084.005.084.084a.248.248,0,0,0-.045.123c.06,0,.09.032.09.084a.322.322,0,0,1-.129.051c0,.019.013.028.039.028-.023.194-.049.292-.079.292a1.031,1.031,0,0,1,.079.326h-.079a6.734,6.734,0,0,1-.084.876l.039.09-.084.157.084.045q-.051.252-.123.253l.039.073-.039.3h.039a1.9,1.9,0,0,0-.118.326l.028.253a5.5,5.5,0,0,1-.073.7.286.286,0,0,1,.045.163V62.4a2.311,2.311,0,0,1-.084.416.786.786,0,0,1-.371-.169c0,.026-.016.039-.05.039v-.039l-.084.039a.655.655,0,0,0-.241-.123l-.2.039v-.039l.034-.084a5.321,5.321,0,0,1-.533-.213q0,.213-.916.421H221.5a1.112,1.112,0,0,1-.669-.241q-.315,0-.579-.663a.259.259,0,0,1,.129-.045l-.045-.415a5.048,5.048,0,0,1,.584-1.157,1.583,1.583,0,0,0,.326-.618q.208-.387.376-.421l.039-.084.415.045h.118c.056,0,.084-.045.084-.135h.09a.631.631,0,0,0,.371.174h.073l.3-1.208h.045l-.045-.073q.1-.545.247-.545l-.039-.073v-.135q.275-1.062.41-1.4a.289.289,0,0,0,.163.084m-2.847,4.555v-.084c-.06,0-.09.028-.09.084Zm.326,1.567.09.051a3.433,3.433,0,0,0,1.191-.792l.051-.208V60.29a.381.381,0,0,1-.208-.09q-.281,0-.416.415-.292.1-.539.708Zm2.246-6.167h.028v.09h-.028Zm.4.662h.079v-.039h-.079Zm.241-.331h.09v-.039h-.09Z" transform="translate(-107.595 -27.205)" fill="#fff"/>
          <path id="Trazado_4238" data-name="Trazado 4238" d="M231.88,58.939a.266.266,0,0,1,.152-.045q0,.045.213.185,0,.079.186.152a.315.315,0,0,1,.033.14v.191h.068v.073a.13.13,0,0,0-.135.146c.044,0,.067.011.067.034l.068-.034h.579a.331.331,0,0,0,.107.185V60h-.073v.045h.073l-.039.062c0,.053.037.079.113.079l-.073.1v.051h.073v.1h-.073v.112c0,.049.036.073.107.073v.068a1.318,1.318,0,0,0,.033.3l-.033.191a.47.47,0,0,0,.033.113l-.033.213v.079h-.107v.034c.071,0,.107.051.107.151l-.034.365c.023,0,.034.013.034.039h-.034l.034.068c0,.026-.011.039-.034.039a.4.4,0,0,0,.034.112q-.028.511-.146.511l.146.18v.039c0,.03-.011.045-.034.045a.4.4,0,0,1,.067.213v.113q.068,0,.275.505c.188.023.255.133.2.331.023.161-.1.26-.36.3,0,.052-.086.09-.258.112a2.444,2.444,0,0,0-.719-.18,1.6,1.6,0,0,1-.618-.663c-.023,0-.034-.013-.034-.039,0-.049.039-.073.118-.073v-.034h-.219q-.079-.551-.213-.55c0,.033-.049.08-.146.14a.4.4,0,0,0-.113-.034l-.039.073a.237.237,0,0,1,.039.113l-.213.191h-.039c0-.1-.023-.146-.067-.146s-.068.049-.068.146H230.8v-.079h-.1v.034h.068l-.034.185H230.7l-.18-.039v.073h-.4a1.586,1.586,0,0,1-.612-.174h-.1v-.079h-.034v.079h-.146a.563.563,0,0,0-.112-.23q-.084,0-.141-.4H228.9v-.113c0-.044.036-.067.107-.067l-.107-.191v-.1l.073-.113v-.034q-.062,0-.112-.084l.039-.174v-.113c.064,0,.11-.11.141-.331a1.436,1.436,0,0,0,.292-.6c.034,0,.1-.12.213-.36l.292-.438q.281-.489.354-.488c.109,0,.206-.122.292-.365l.141-.113-.039-.073v-.034q.382-.511.511-.511,0,.089.781.185m-1.64,2.831h.034v-.079h-.034Zm.528-.23v.045a.673.673,0,0,0-.18.444c-.041,0-.075.084-.1.253q-.18,0-.18.326c-.023,0-.034.052-.034.157a.533.533,0,0,1,.281-.157l-.034-.073V62.5h.107l-.039-.068v-.039c.194-.187.294-.337.3-.449a.389.389,0,0,0,.247-.36c.037-.011.084-.075.14-.191l-.039-.068c.056,0,.118-.1.185-.292v-.113a.271.271,0,0,1-.068-.146c-.053,0-.149.106-.292.32a1.223,1.223,0,0,0-.213.343.407.407,0,0,1-.113.033Zm.618-1.022v.174h.034a.292.292,0,0,1,.073-.141l-.073-.033Zm.714,3.561q.017.078.078.078h.034c0-.052-.025-.078-.073-.078Zm.331-2.826h.034V61.18h-.034Zm.14.809h.073v-.034h-.073Zm.107.876h.068V62.9h-.068Z" transform="translate(-111.801 -28.701)" fill="#fff"/>
          <path id="Trazado_4239" data-name="Trazado 4239" d="M240.126,59.869a.534.534,0,0,1,.275.41v.365c0,.03.017.045.05.045q-.337.685-.7.685l-.1-.045h-.045l-.1.045a3.183,3.183,0,0,0-.652-.27q-.1,0-.236-.685a1.465,1.465,0,0,1,.472-.64q0-.225.32-.225,0,.252.708.315m2.252-6.976v.1l.1-.051h.039l-.039.1a.169.169,0,0,1,.135.09,1.95,1.95,0,0,1-.1.371.319.319,0,0,1,.056.18.336.336,0,0,0-.056.135h.056a4.674,4.674,0,0,1-.528.775,3.409,3.409,0,0,1-.371,1.18h-.09l.051.1a.7.7,0,0,0-.191.41h.039a6.839,6.839,0,0,0-.275.865c.034,0,.051.015.051.045q-.124,0-.286.871-.073,0-.275.545a1.376,1.376,0,0,1-.337.23q-.472-.14-.472-.275a1.053,1.053,0,0,1-.567-.5,10.014,10.014,0,0,1,.9-3.28q1.011-1.916,1.41-1.916l-.051-.1a1.3,1.3,0,0,0,.326-.225q.472.242.472.365" transform="translate(-116.57 -25.66)" fill="#fff"/>
        </g>
      </g>
      <g id="Grupo_1978" data-name="Grupo 1978" transform="translate(0 0)">
        <g id="Grupo_1977" data-name="Grupo 1977" clip-path="url(#clip-path)">
          <path id="Trazado_4240" data-name="Trazado 4240" d="M15.775,24.962a.553.553,0,0,1-.082-1.1l1.583-.121c.008-4.92.343-9.918,2.352-15.032a.553.553,0,0,1,1.018-.029l2.128,3.975,1.967.066,1.822-2.813a.552.552,0,0,1,.764-.162.545.545,0,0,1,.2.221h0l1.747,3.577a4.821,4.821,0,0,1,1.784,2.5,10.863,10.863,0,0,1,.476,2.27c.108.819.2,1.481.485,1.612a6.434,6.434,0,0,0,1.79.069c.372-.011.76-.021,1.141-.019V10.993L19.479,1.206,4.009,10.993v3.418a.554.554,0,0,1-1.108,0V10.69h0a.552.552,0,0,1,.258-.468L19.181.087a.552.552,0,0,1,.592,0L35.759,10.2a.554.554,0,0,1,.3.491v9.344a2.168,2.168,0,0,1,1.763.91,2.07,2.07,0,0,1,.136.316,4.664,4.664,0,0,1-.232,3A5.679,5.679,0,0,1,35.1,27.213a6.111,6.111,0,0,1-.932.4,12.493,12.493,0,0,1-2.731.555,15.3,15.3,0,0,1-2.157.056,2.73,2.73,0,0,0-1.492.76c-.2.164-.417.339-.688.528a3.37,3.37,0,0,1-2.226.461,2.488,2.488,0,0,1-.732-.212,1.549,1.549,0,0,1-.609-.5,1.318,1.318,0,0,1-.219-.968A2.57,2.57,0,0,1,24.4,26.586a2.885,2.885,0,0,1-.7-1.11,2.81,2.81,0,0,1-.133-.627.552.552,0,0,1,1.1-.1,1.709,1.709,0,0,0,.081.38,2.092,2.092,0,0,0,.895,1.058.653.653,0,0,1,.056.036,5.247,5.247,0,0,0,1.375.572,10.348,10.348,0,0,0,2.171.329c.021,0,.043,0,.064,0a14.234,14.234,0,0,0,2.02-.052,11.353,11.353,0,0,0,2.484-.5,5.031,5.031,0,0,0,.764-.329,4.578,4.578,0,0,0,2.106-2.38,3.541,3.541,0,0,0,.215-2.249,1,1,0,0,0-.062-.148c-.241-.45-1.728-.407-3.008-.37a6.212,6.212,0,0,1-2.275-.164c-.848-.386-.972-1.32-1.126-2.478a9.832,9.832,0,0,0-.424-2.04,3.5,3.5,0,0,0-1.378-1.969.552.552,0,0,1-.286-.27l-1.389-2.844L25.5,13.581a.553.553,0,0,1-.48.251l-2.6-.087a.55.55,0,0,1-.469-.292l-1.715-3.2a40.482,40.482,0,0,0-1.856,13.4l2.2-.168a.553.553,0,1,1,.082,1.1l-2.28.174q.006.918.02,1.833l2.245.472a.553.553,0,0,1-.225,1.082l-2-.421c.015,1.036.028,2.047.028,2.877a.554.554,0,1,1-1.108,0c0-1.173-.013-2.146-.027-3.11l-1.92-.4a.553.553,0,0,1,.225-1.082l1.679.352q-.01-.757-.016-1.516ZM2.9,18.077c0,.018,0,.036,0,.055v5.624l-2.32-.119a.553.553,0,0,0-.057,1.1l2.376.122v1.684l-2.408.567a.553.553,0,0,0,.251,1.078L2.9,27.684v7.253a.554.554,0,0,0,.554.554H35.5a.554.554,0,0,0,.554-.554V29.058a.554.554,0,0,0-1.108,0v5.324H4.009V27.423l1.406-.331a.553.553,0,0,0-.251-1.078l-1.155.272V24.92l1.3.066a.553.553,0,1,0,.056-1.1l-1.351-.07V19.02l2.8,1.61a.55.55,0,0,0,.515.018h0a8.747,8.747,0,0,1,3.093-.792,7.1,7.1,0,0,1,3.088.781.553.553,0,0,0,.648-.094L16.6,18.306a.552.552,0,0,0-.745-.814l-2.188,2a7.984,7.984,0,0,0-3.281-.74,9.738,9.738,0,0,0-3.273.779L3.73,17.586a.552.552,0,0,0-.827.491m24.38,9.9c-.167-.036-.331-.076-.491-.12s-.291-.084-.431-.131c-.444.135-1.1.381-1.1.381l.648-.548a5.579,5.579,0,0,1-.569-.274,1.641,1.641,0,0,0-.932,1.162.259.259,0,0,0,.029.185.473.473,0,0,0,.184.137,1.365,1.365,0,0,0,.4.113,2.193,2.193,0,0,0,1.442-.27c.227-.158.432-.325.624-.481l.189-.153M8.093,23.458c.343,0,.622-.376.622-.84s-.279-.84-.622-.84-.622.376-.622.84.279.84.622.84m3.93-.84c0,.464.279.84.622.84s.622-.376.622-.84-.279-.84-.622-.84-.622.376-.622.84m.3,1.843a.525.525,0,0,0-.114.375.546.546,0,0,1-.232.438.725.725,0,0,1-.282.143.512.512,0,0,1-.274,0,.882.882,0,0,1-.49-.573.525.525,0,0,0-.324-.355.511.511,0,0,0-.176-.033h-.017a.527.527,0,0,0-.5.388.882.882,0,0,1-.49.573.512.512,0,0,1-.274,0,.732.732,0,0,1-.282-.143.545.545,0,0,1-.231-.438.527.527,0,1,0-1.051-.091,1.59,1.59,0,0,0,.619,1.344,1.788,1.788,0,0,0,.7.35,1.548,1.548,0,0,0,.83-.021,1.608,1.608,0,0,0,.689-.435,1.611,1.611,0,0,0,.689.435,1.55,1.55,0,0,0,.83.021,1.788,1.788,0,0,0,.7-.35,1.654,1.654,0,0,0,.616-1.079,1.353,1.353,0,0,0,0-.265.527.527,0,0,0-.937-.284m22-2.629c-.932,0-1.688.539-1.688,1.2s.756,1.2,1.688,1.2,1.689-.539,1.689-1.2-.756-1.2-1.689-1.2m-5.737-1.952c.344,0,.622-.376.622-.84s-.279-.841-.622-.841-.622.376-.622.841.279.84.622.84m-4.156,0c.343,0,.622-.376.622-.84s-.279-.841-.622-.841-.622.376-.622.841.279.84.622.84m-9.9-8.508a.889.889,0,0,0-1.728.4.927.927,0,0,0-1.682.731c.282.853,1.4,1.422,2.534,1.991.569-1.136,1.159-2.27.876-3.122m-1.214-1.7a1.913,1.913,0,0,0-.915.41,2.038,2.038,0,0,0-.162.15l-.184-.012a2,2,0,0,0-.981.233,2.1,2.1,0,0,0-.724.631,1.932,1.932,0,0,0-.279,1.761,3.342,3.342,0,0,0,1.36,1.658l0,0a13.77,13.77,0,0,0,1.725.972,1.1,1.1,0,0,0,1.481-.494l.047-.094c.636-1.266,1.266-2.525.926-3.748l-.032-.12a2,2,0,0,0-1.345-1.291,2.073,2.073,0,0,0-.921-.059" transform="translate(0 0)" fill="#fff" fill-rule="evenodd"/>
        </g>
      </g>
    </g>
  </g>
</svg>
